<?xml version="1.0" encoding="UTF-8"?>
<!DOCTYPE svg PUBLIC "-//W3C//DTD SVG 1.1//EN" "http://www.w3.org/Graphics/SVG/1.1/DTD/svg11.dtd">
<!-- Creator: CorelDRAW 2019 -->
<svg xmlns="http://www.w3.org/2000/svg" xml:space="preserve" width="25.6832mm" height="22.3736mm" version="1.1" style="shape-rendering:geometricPrecision; text-rendering:geometricPrecision; image-rendering:optimizeQuality; fill-rule:evenodd; clip-rule:evenodd"
viewBox="0 0 2577.05 2244.96"
 xmlns:xlink="http://www.w3.org/1999/xlink"
 xmlns:xodm="http://www.corel.com/coreldraw/odm/2003">
 <defs>
  <style type="text/css">
   <![CDATA[
    .fil1 {fill:#33763E}
    .fil3 {fill:#252726}
    .fil0 {fill:#008C00}
    .fil2 {fill:#D90000}
    .fil4 {fill:#FEFEFE;fill-rule:nonzero}
    .fil5 {fill:blue;fill-rule:nonzero}
   ]]>
  </style>
 </defs>
 <g id="Layer_x0020_1">
  <metadata id="CorelCorpID_0Corel-Layer"/>
  <g id="_781073824">
   <path class="fil0" d="M842.92 157.96l0 16.81c0,11.58 2.49,13 3.36,23.52 42.73,-3.55 100.82,-75.33 100.82,-127.7l0 -67.22c-22.62,0.5 -65.34,36.68 -76.49,51.21 -16.23,21.16 -27.69,65.7 -27.69,103.38z"/>
   <path class="fil0" d="M1461.29 26.89c0,23.58 38.24,77.77 53.74,87.41 31.55,19.57 67.07,26.85 117.66,26.85l3.35 0c5.51,0 10.08,-2.01 10.08,-6.72 0,-30.26 -40.95,-75.7 -61.36,-89.87 -11.23,-7.8 -123.48,-39.51 -123.48,-17.66z"/>
   <path class="fil0" d="M1051.28 26.89c-31.4,21.02 -34.92,2.36 -71.47,42.79 -5.58,6.17 -50.03,71.46 -29.35,71.46 46.15,0 95.74,-5.76 123.77,-24.1 17.5,-11.44 57.71,-67.78 57.71,-90.16 0,-10.7 -66.05,0 -80.65,0z"/>
   <path class="fil0" d="M1746.95 198.28l3.36 -30.24c11.27,-75.12 -53.88,-163.57 -107.54,-168.04 3.02,36.3 -0.36,97.03 19.49,128.39 14.39,22.75 54.24,67.35 84.7,69.89z"/>
   <path class="fil0" d="M1508.34 178.12c10.43,19.7 71.54,63.85 100.82,63.85l23.53 0c48.86,0 72.15,-21.41 97.46,-23.52 -20.2,-30.15 -66.81,-63.86 -117.63,-63.86 -29.7,0 -84.61,14.13 -104.18,23.53z"/>
   <path class="fil0" d="M1780.56 100.82l0 33.6c0,37.12 9.51,81.17 27.69,100.02 17.36,17.99 42.71,51.21 76.49,51.21l0 -60.48c0,-82.73 -104.18,-153.65 -104.18,-124.35z"/>
   <path class="fil0" d="M863.08 218.45c25.56,5.95 52.08,23.52 87.38,23.52l13.54 0.86 41.89 -1.99 75.64 -56.01 0 -10.07c-30.63,0 -53.7,-20.17 -94.1,-20.17l-10.08 0c-40.16,0 -107.3,37.81 -114.26,63.86z"/>
   <path class="fil0" d="M708.49 272.22l0 16.8c60.06,-13.99 104.18,-80.05 104.18,-157.96l0.76 -3.45 -4.12 -36.87c-26.9,7.18 -67.02,40.41 -80.09,64.42 -25.78,47.35 -20.73,58.32 -20.73,117.07z"/>
   <path class="fil0" d="M728.65 309.19c33.72,7.86 52.28,23.52 100.82,23.52l20.17 0c3.01,0 50.13,-20.78 53.9,-23.39 10.64,-7.35 33.09,-29.85 40.2,-40.46 -25.49,-12.23 -63.03,-23.53 -100.82,-23.53l-10.08 0c-36.33,0 -96.93,36.7 -104.18,63.86z"/>
   <path class="fil0" d="M1646.13 265.5c7.48,27.96 72.32,67.21 110.91,67.21l20.17 0c29.41,0 63.84,-17.24 87.38,-23.52 -7.13,-26.73 -71.77,-63.86 -110.91,-63.86l-10.08 0c-47.19,0 -65.11,19.45 -97.46,20.17z"/>
   <path class="fil0" d="M587.5 346.15l0 10.08c0,6.22 11.55,56.53 13.45,60.49 27.87,-7.45 85.72,-80.75 82.62,-117.9l-12.05 -90.47c-45.04,1 -84.01,81.27 -84.01,137.79z"/>
   <path class="fil0" d="M1910.3 275.35l1.32 17.03c0,49.03 44.86,114.79 80.66,124.35 9.51,-40.85 18.85,-91.51 3.41,-131.12 -9.51,-24.43 -46.85,-78.35 -73.43,-80.51l-11.97 70.26z"/>
   <path class="fil0" d="M621.1 433.54l80.66 10.07 3.36 0c48.4,0 123.51,-49.92 124.2,-86.3l-67.07 -7.8 -16.81 0c-51.23,0 -115.24,44.91 -124.35,84.02z"/>
   <path class="fil0" d="M1763.92 357.5c0.64,34.81 75.15,86.11 120.83,86.11l3.6 1.86 83.77 -11.93c-8.2,-30.71 -75.02,-84.02 -117.63,-84.02l-20.28 -0.94 -70.3 8.93z"/>
   <path class="fil0" d="M490.04 460.42l0 13.45c0,19.2 22.79,73.15 26.88,90.74 22.43,-5.99 60.49,-66.97 60.49,-97.46l0 -33.6c0,-26.65 -17.34,-69.34 -26.88,-87.39 -26.53,17.77 -60.49,68.52 -60.49,114.27z"/>
   <path class="fil0" d="M2017.21 413.83c-1.4,36.47 -9.52,60.19 7.93,91.03 10.11,17.87 28.69,57.88 51.16,59.74 2.67,-32.11 23.52,-47.34 23.52,-97.46l0 -6.72c0,-44.92 -31.32,-106.47 -60.16,-114.16l-22.45 67.57z"/>
   <path class="fil0" d="M1999 578.05l50.41 0c-12.6,-54.12 -70.64,-107.54 -137.79,-107.54l-53.77 0c13.51,57.96 69.23,107.54 141.15,107.54z"/>
   <path class="fil0" d="M577.42 510.83l-37.19 65.05 3.58 2.17 40.33 0c39.71,0 80.16,-10.95 100.01,-31.06 17.33,-17.56 50.53,-48.53 51.22,-79.85 -25.25,0.56 -70.94,4.33 -91.44,9.38 -30.57,7.53 -53.56,33.23 -66.52,34.31z"/>
   <path class="fil0" d="M2083.03 618.37l0 13.45c0,42.52 18.9,66.32 33.6,94.1 27.88,-18.67 53.77,-81.83 53.77,-131.07l0 -3.36c0,-26.51 -24.57,-76.83 -40.33,-87.38 -17.17,35.77 -47.05,63.16 -47.05,114.27z"/>
   <path class="fil0" d="M422.82 594.84l0 36.98c0,16.13 37.38,82.01 50.41,90.74 19.35,-12.95 36.98,-60.89 36.98,-94.1 0,-68.08 -38.17,-86.22 -47.06,-124.35 -18.12,4.84 -40.33,64.59 -40.33,90.74z"/>
   <path class="fil0" d="M496.76 732.64c98.64,0 152.42,-59.68 171.39,-141.16 -28.21,-5.97 -93.41,22.49 -114.35,36.88 -22.76,15.65 -54.09,68.79 -57.04,104.27z"/>
   <path class="fil0" d="M2096.46 732.64c-0.75,-33.87 -33.71,-84.57 -53.94,-100.64 -24.18,-19.22 -75.01,-40.52 -117.45,-40.52 9.84,42.28 22.78,78.95 53.07,101.52 26.49,19.76 72.88,39.63 118.32,39.63z"/>
   <path class="fil0" d="M375.77 746.08l0 26.89c0,37.88 14.39,48.96 27.96,72.86 4.86,8.55 42.71,51.48 49.34,51.48 13.98,0 20.16,-58.77 20.16,-77.29 0,-44.98 -56.14,-128.75 -84.01,-131.06 -1.38,16.64 -13.45,37.95 -13.45,57.12z"/>
   <path class="fil0" d="M2113.27 900.67l0 -23.52c0,-39.26 -21.12,-82.14 -42.79,-101.71 -26.12,-23.58 -59.93,-36.1 -91.63,-52.88 0,58.65 5,89.61 34.37,120.22 17.95,18.7 67.9,57.18 100.06,57.9z"/>
   <path class="fil0" d="M479.96 870.43l0 30.24c80.88,-18.83 134.43,-72.68 134.43,-174.75 -28.49,2.37 -71.55,31.34 -88.95,48.83 -23.07,23.2 -45.47,51.98 -45.47,95.68z"/>
   <path class="fil0" d="M2119.99 816.66l0 20.17c0,26.48 11.85,41.39 13.45,60.48 32.33,-2.69 84.01,-85.73 84.01,-127.7l0 -10.08c0,-21.76 -9.85,-59.45 -16.81,-73.93 -30.21,20.23 -80.65,80.88 -80.65,131.06z"/>
   <path class="fil0" d="M2119.99 1025.02l3.36 47.05c20.69,-0.46 60.33,-35.18 73.13,-47.86 18.46,-18.3 37.78,-51.42 37.78,-86.56l0.74 -30.36 -4.1 -30.13c-14.83,3.95 -61.03,42.69 -73.11,54.6 -15.66,15.43 -40.87,62.07 -37.8,93.27z"/>
   <path class="fil0" d="M1999 914.12l0 10.08c0,38.06 13.51,72.44 32.72,91.63 15.37,15.38 47.11,50.85 71.79,52.94l6.39 -40.39c7.26,-41.2 -23.83,-89.58 -42.85,-108.39 -16.02,-15.86 -24.05,-21.93 -41.74,-35.57 -25.84,-19.92 -26.32,-2.18 -26.32,29.69z"/>
   <path class="fil1" d="M466.51 1075.43c2.31,-4.1 3.36,-3.59 3.36,-10.08l0 -53.77c0,-66.02 -66.71,-107.08 -107.54,-134.43 -18.81,39.21 3.11,101.02 17.3,127.21 17.38,32.06 56.49,50.71 86.88,71.07z"/>
   <path class="fil1" d="M483.32 1018.3l6.72 50.41c16.34,-1.35 57.72,-38.02 67.84,-49.78 16.79,-19.5 36.34,-46.7 36.34,-81.29l1.33 -6.89 -8.06 -60.32c-8.98,2.4 -62.47,45.81 -69.77,54.57 -13.18,15.87 -38.91,62.1 -34.42,93.3z"/>
   <path class="fil2" d="M1357.11 1922.33c120,0 260.85,-52.27 347.45,-89.44 93.16,-39.99 189.97,-110.21 256.65,-176.89 77.56,-77.56 136.72,-145.44 189.08,-247.81 36.79,-71.93 100.77,-227.81 100.77,-332.76 -17.71,9.37 -148.06,94.1 -151.23,94.1l-3.36 0c-11.04,0 -97.22,-92.01 -117.62,-97.46 -11.01,132.27 -113.83,296.97 -187.36,370.52 -40.86,40.86 -103.27,95.32 -157.73,121.21 -31.89,15.15 -60.22,30.09 -93.39,44.4 -22.96,9.91 -93.49,23.48 -105.96,31.84l-120.8 12.04 -50.59 -1.96c-166.9,0 -350.54,-96.36 -434.37,-180.64 -47.85,-48.11 -103.31,-107.3 -134.72,-171.11 -32.55,-66.12 -72.19,-138.06 -79.54,-226.3 -23.9,1.99 -112.1,97.46 -127.7,97.46 -13.3,0 -126.33,-89.22 -144.51,-90.74l0 13.45c0,87.44 74.76,276.75 110.22,333.39 25.78,41.19 56.76,99.8 88.83,132.97 18.79,19.45 32.01,42.16 50.45,60.46 18.63,18.5 37.9,34.29 55.51,52.03 126.46,127.38 374.58,251.24 629.27,251.24l80.65 0z"/>
   <path class="fil0" d="M725.29 2087.01c141.25,-67.77 364.28,-100.82 574.69,-100.82 195.91,0 463.2,38.08 588.13,104.18 -7.2,10.76 -91.18,117.63 -94.11,117.63 -5.51,0 -89.75,-28.62 -104.6,-33.18 -34.31,-10.55 -73.82,-18.72 -111.73,-26.07 -70.64,-13.68 -166.23,-24.77 -247.44,-24.77l-57.13 0c-53.89,0 -209.06,9.74 -246.44,22.43 -29.35,9.95 -76.35,18.11 -108.47,25.96 -15.75,3.85 -98.77,35.64 -98.78,35.64 -1.79,0 -91.74,-112.15 -94.11,-120.99zm-266.3 -254.6c28.85,29.08 59.98,50.59 90.73,77.31 31.01,26.94 67.87,45.84 102.33,69.06 17.78,11.99 99.42,49.25 103.5,64.54l-75.58 33.49 1.64 3.47c12.76,19.06 122.93,164.68 134.44,164.68l241.97 0c-6.55,-24.52 -58.46,-39.34 -60.49,-63.86 37,-4.69 73.99,-9.37 110.99,-14.07l134.35 -12.81 0 0 107.54 0c59.4,0 234.28,17.02 268.86,33.6l-62.19 55.14 240.3 2c9.25,0 123.21,-144.55 134.44,-161.32 -9.91,-14.8 -71.59,-38.44 -94.1,-43.69 3.22,-12.07 88.81,-53.58 104.18,-63.86 27.43,-18.33 76.61,-47.48 100.1,-67.93 28.98,-25.23 64.44,-50.99 90.65,-77.39 27.97,-28.18 53.07,-56.56 80.58,-84.09 56.63,-56.68 94.36,-125.01 138,-194.71 19.97,-31.9 41.63,-74.67 56.83,-111.21 14.18,-34.08 29.66,-91.65 44.67,-120.01l14.79 19.28 8.73 0.89c2.29,-9.82 23.57,-57.13 33.6,-57.13 25.63,0 43.88,11.5 67.22,13.45 -0.3,-13.49 -25.56,-98.09 -31.58,-119.66 -5.98,-21.43 -29.32,-98.79 -49.08,-98.79l-181.48 0c0,127.03 -63.67,278.72 -106.48,367.37 -46.17,95.56 -133.15,194.04 -205.18,265.33 -72.61,71.87 -185.21,139.11 -284.9,185.61 -49.11,22.9 -118.36,47.18 -176.22,59.03 -76.27,15.62 -131.87,3.17 -218.64,3.17l-50.41 0c-41.89,0 -76.27,3.42 -114.27,3.36 -24.19,-0.05 -37.26,3.5 -57.13,3.52 -26.42,0.02 -31.17,-7.93 -47.24,-10.05 -48.44,-6.42 -140.93,-37.3 -179.12,-56.14 -102.99,-50.83 -209.05,-108.86 -285.31,-185.19 -82.04,-82.12 -149.59,-155.9 -206.46,-264.05 -39.67,-75.46 -108.62,-249 -108.62,-358.51l0 -13.45 -191.56 0c-28.1,0 -68.46,186.02 -83.39,220.76l70 -18.92 35.64 59.18 8 1.12 18.39 -34.63c9.81,17.78 14.71,47.07 22.96,67.21 8.02,19.55 17.28,40.81 23.8,60.22 12.86,38.35 37.18,77.95 54.68,113.35 24.44,49.45 104.25,160.68 141.45,197.99 14.44,14.48 26.49,31.76 40.31,47.08 14.76,16.39 29.28,25.64 43.77,40.25z"/>
   <path class="fil3" d="M1003.75 789.84l0.58 6.58 1.14 13.16c-7.77,-5.96 -11.61,-16.42 -13.23,-31.86 11.14,2.57 5.62,0.91 11.51,12.11zm-23.3 2.38l0.58 6.58c1.29,14.83 11.4,32.08 23.05,35.09l-8.66 39.83c14.07,-6.41 24.67,-46.25 22.43,-72.03l-1.44 -16.47c-1.45,-16.64 -12.21,-31.97 -26.17,-30.54 -9.12,0.93 -10.82,25.64 -9.78,37.54z"/>
   <path class="fil3" d="M1118.52 937.55c9.23,-4.19 8.78,-19.09 7.48,-33.98 -3.7,-42.34 -21.79,-69.99 -24.74,-103.76l5.18 -0.53 -2.02 -23.04c-6.77,-21.88 -12.99,-34.24 -17.55,-51.35l-7.37 -8.67 -2.98 9.72c0.96,43.92 1.09,63.74 14.22,108.83 7.17,24.62 25.74,79.29 27.79,102.78z"/>
   <path class="fil3" d="M1136.63 786.23l0.28 3.3c2.12,24.17 9.25,52.36 16.23,94.93 2.55,29.2 12.37,84.82 30.66,82.95 14.38,-1.46 26.72,-18.21 28.47,-32.79 5.39,2.9 8.21,5.8 16.11,5l2.59 -0.26c10.35,-1.06 58.83,-38.8 66.43,-46.64l20.87 -2.05 7.61 -30.75c-16.89,-18.72 -22.86,1.61 -43.8,-14.52 -11.51,-8.87 -26.41,-21.49 -42.77,-19.83 -15.89,1.63 -24.39,19.72 -22.72,38.86l1.14 13.16c13.47,-6.13 2.43,-16.86 21.86,-18.83 6.58,-0.67 26.49,14.46 30.48,20.14 -9.57,7.88 -25.31,22.51 -39.68,23.97l-2.59 0.27c-16.18,1.65 0.72,-16.39 -20.14,-21.2 2.56,36.56 -5.7,36.57 -21.85,48.74 -17.57,-27.08 -14.32,-42.69 -18.1,-87.87 -1.18,-14.11 -4.29,-34.39 -7.01,-48.96 -2.37,-12.7 -12.54,-24.99 -13.73,-38.57l-1.73 -19.76c-11.71,5.33 -10.27,31.79 -8.62,50.7z"/>
   <path class="fil3" d="M945.87 1261.08l-26.26 -9.23 27.85 -26.73 26.95 11.6 -28.55 24.36zm386.03 -541.27l23.52 19.47 2.66 40.97 -22.72 -20.93 -3.46 -39.5zm7.68 -150.65l11.02 125.5 -23.51 -19.47 -7.06 -53.73 -3.22 -45.51 22.78 -6.78zm20.5 -5.01c3,-1.87 8.58,-4.2 12.65,-4.62 20.42,-2.09 33.14,20.59 35.38,46.21 2.38,27.18 -23.23,76.4 -36.51,90.09l-11.52 -131.68zm-603.95 380.49l3.45 39.5c3.28,37.43 45.59,118.35 62.44,138.91 21.5,26.24 68.13,80.17 98.85,87.95l-29.26 28.7c-44.68,-31.18 -77.4,-45.14 -112.77,-94.74 -15.52,-21.76 -66.02,-128.15 -69.3,-165.67l-2.88 -32.92c-1.21,-13.88 -2.37,-13.49 -2.74,-33.17 1.87,-15.22 2.17,-21.31 6.97,-37.1 6,-19.69 13.04,-44.28 17.78,-64.36l34.89 -69.23 20.65 -29.5 27.26 -25.3c23.64,-21.92 32.11,-30.94 79.17,-61.77 36.16,-16.71 91.67,-26.56 137.82,-31.28 55.05,-5.62 116.53,9.23 156.48,27.19 26.92,12.1 109.77,57.56 124.53,80.31l3.45 39.5c-81.5,-43.94 -166.83,-112.51 -283.02,-100.65l-23.3 2.38c-27.63,2.82 -95.91,29.21 -112.17,43.32 -72.38,62.87 -150.26,121.25 -138.31,257.92zm593.87 -465.82c30.47,0.11 57.36,28.78 61.27,73.46 -13.16,-9.18 -16.36,-21.58 -38.25,-19.35l-18.12 1.85 -4.9 -55.96zm-71.89 43.87c-0.87,-10 3.51,-11.64 9.2,-14.23l2.88 32.92c-4.75,-3.3 -10.99,-6.1 -11.8,-15.4l-0.28 -3.29zm234.97 -60.51c43.23,-4.41 82.82,10.9 107.03,36.35 9.8,10.3 26.69,36.4 25.77,58.38 -0.75,17.99 -6.8,57.46 -14.29,65.89 -7.69,-87.92 -63.28,-131.67 -128.46,-125.01l-3 -34.29 12.94 -1.32zm-40.47 -61.34l1.51 -3.6c1.04,-2.48 2.35,4.62 3.01,12.15l1.43 16.46 -15.18 4.91 9.23 -29.91zm-192.49 55.22l1.73 19.76c0.62,7.18 -20.37,35.81 -17.54,68.22l0.29 3.29c1.38,15.9 21.27,21.99 31.07,26.72l6.9 79.01c-35.99,-19.41 -82.15,-56.2 -122.07,-69.15 -44.12,-14.32 -95.02,-31.59 -150.01,-25.97 -46.98,4.8 -92.6,14.22 -132.23,28.2 -23.44,8.27 -35.15,17.06 -53.88,26.96l-51.44 35.51c-69.92,57.58 -153.56,182.53 -123.08,324.78 15.36,71.64 40.76,131.48 73.99,177.12 21.65,29.73 86.38,102.82 118.16,108.84l0.34 6.02 -74.25 44.7 -10.86 5.76 4.31 11.59 8.18 24.13 100.34 -72.61 23.99 8.3c-12.87,17.23 -30.08,29.5 -46.31,43.92l-49.43 40.63 10.91 20.44c24.1,-14.9 41.95,-26.8 61.63,-42.72 5.18,-4.74 54.86,-52.32 55.38,-51.39l210.57 17.51 0 0 82.83 -8.46c20.01,-2.04 53.3,-14.17 69.51,-22.48 12.2,-6.25 22.01,-5.98 32.68,-13.43 7.57,-5.29 22.62,-17.87 28.67,-20.63 -2.49,26.53 -11.13,51.97 -8.33,83.88l0.86 9.88c2.46,28.1 9.83,29.66 24.16,37.39 36.92,-30.4 10.1,-106.39 42.55,-110.62 2.1,13.63 13.37,41.81 24.45,40.69 12.22,-1.25 25.01,-40.57 26.45,-55.85 7.1,8.57 8.44,19.06 22.44,17.64 8.55,-0.87 21.82,-25.68 23.01,-35.56 5.73,3.99 7.59,9.19 13.81,8.55l5.18 -0.52c11.95,-1.22 32.32,-18.65 31.06,-33.06l-1.15 -13.17c-1.78,-20.33 -11.15,-57.08 -25.89,-57.14l3.17 36.22c1.04,11.95 4.07,11.23 7.19,22.51 -6.93,2.84 -9.95,7.66 -14.96,8.17 -5.93,0.61 -3.11,-0.8 -10.64,-2.23l-2.02 -23.05 -7.77 0.79c0.33,15.13 -14.71,51.32 -21.56,52.03 -13.46,1.36 -16.89,-13.88 -18.41,-31.34l-7.77 0.79c-1.14,12.13 -11.58,64.29 -20.42,65.19 -14.55,1.49 -12.51,-41.9 -34.8,-39.63 -24.52,2.51 -15.73,107.9 -37.39,110.1 -7.96,0.81 -11.19,-8.59 -12.08,-18.69l-0.28 -3.29c-2.56,-29.2 5.58,-48.34 6.57,-73.8 1.91,-48.84 -2.75,-10.37 -24.91,0.69 -31.39,15.65 -78.25,33 -117.99,37.21 -38.65,4.08 -97.55,5.5 -130.75,0.31 -19.77,-3.09 -42.13,-1.49 -61.97,-5.12 -19.71,-3.6 -40.6,-11.25 -63.34,-11.33l25.12 -26.73c5.02,0.94 23.97,7.52 24.16,7.5l39.79 2.96c38.67,-3.94 -37.41,-27.25 -49.87,-28.51 8.96,-21.5 36.67,-52.23 34.51,-83.23l-7.77 0.79c-6.75,0.69 -45.09,74.35 -53.49,75.2 -1.93,0.2 -24.02,-9.07 -27.03,-10.53 3.29,-7.91 36.78,-45.92 45.36,-56.86 8.26,-10.55 35.96,-58.4 34.87,-70.89 -0.96,-10.96 -5.49,-9.17 -13.81,-8.56 -2.8,23.32 -78.75,117.64 -91.45,118.94 -21.66,2.21 -69.74,-60.02 -85.73,-76.75 -23.84,-24.93 -52.67,-71.72 -57.2,-124.6 -8.9,-103.49 30.26,-197.19 85.99,-241.19 16.09,-12.7 22.94,-24.93 43.09,-38.33 13.29,-8.84 40.99,-19.73 56.4,-24.32 37.24,-11.09 102.72,-10.69 133.41,-2.25 50.87,13.98 178.46,66.9 203.73,106.67l7.47 72.37c1.84,16.15 -0.96,51.61 0.52,72.95 26.49,-6.47 18.71,-84.66 15.47,-128.57l15.26 19.2 27.95 242.88 5.47 62.54c0.82,9.4 -6.95,24.03 -12.57,29.21 1.61,-7.16 1.42,-7.33 0.78,-14.72l-1.15 -13.16c-4.45,-50.85 -61.57,-104.7 -72.78,-145.36 4.28,-1.95 8.17,-3.07 11.68,-6.44 -0.37,-4.26 -24.84,-49.42 -28.7,-54.2 -4.05,6.95 -10.6,27.79 -10.89,40.25 18.97,80.23 87.2,139.19 93.9,202.12l-54.86 49.97 1.54 2.84 23.3 -2.38c19.57,-2 46.42,-39.66 55.22,-55.46 1.8,17.13 16.05,34.9 26.46,33.83l7.77 -0.79c8.71,-0.89 13.87,-13.6 16.4,-21.6 5.73,3.99 7.58,9.19 13.8,8.56l2.59 -0.27c6.37,-0.64 14.25,-12.46 16.69,-18.3 5.73,3.99 7.59,9.19 13.81,8.55l2.59 -0.26c12.96,-1.32 29.48,-21.18 27.89,-39.38l-1.44 -16.47c-0.39,-4.47 -8.56,-22.73 -10.22,-26.28l-7.03 -21.77c-5.28,5.94 -9.14,14.92 -8.05,27.39l6.57 17.56c1.23,14.16 1.92,8.74 2.06,21.41l-7.77 0.79c-5.8,0.59 -6.97,-0.23 -10.93,-5.53 -1.36,-18.9 -0.31,-29.47 -8.67,-34.61 -4.26,-2.61 -5.72,42.13 -6,46.08 -6.75,2.82 -4.6,3.78 -10.06,4.34 -3.63,0.37 -5.57,-3.96 -6.04,-9.35l-0.29 -3.29c-0.87,-10.02 0.12,-12.16 1.35,-20.78l-8.8 -8.16 -6.36 20.39c1.38,15.83 -1.6,33.37 -12.65,34.51l-2.59 0.26c-7.15,0.73 -13.45,-9.44 -16.4,-14.94l-18.25 -167.92 -1.31 -19.4 -9.5 -108.64c23.51,16.4 39.24,69.97 69.79,75.01 5.66,0.93 5.73,-13.61 9.59,-17.2l-80.25 -97.59 -4.02 -46.09c17.17,11.98 146.47,151.87 147.84,167.59l1.73 19.76 0.36 4.09 -1.44 -1.12 -51.26 -34.17c-1.5,4.75 -6.22,18.38 -5.75,23.84 1.11,12.73 44.5,30.82 60.56,35.42l8.49 97.03c3.22,36.88 -3.89,29.74 -3.45,50.17 16.08,-2.1 24.85,-44.35 23.01,-65.45l-6.62 -75.72c30.67,5.81 51.65,13.55 86.79,4.71 30.98,-7.8 60.18,-23.03 88.93,-25.96l5.18 -0.53c36.95,-3.77 105.6,74.42 119.07,77.53 -10.3,-26.9 -84.3,-101 -118.21,-97.55l-12.94 1.32c-22.51,2.3 -64.16,19.18 -89.41,25.58 -19.2,4.86 -59.43,1.27 -78.76,-3.95 -1.19,-0.32 -2.08,-1.58 -2.7,-3.33 -1.74,-4.86 -1.63,-13.58 -1.41,-17.32 7.03,3.79 23.71,10.48 32.9,13.07 7.03,1.28 9.51,0.63 14.1,0.17l11.79 -2.81c14.41,-1.46 73.38,-34.47 104.58,-41.76 39.83,-9.3 72.19,17.97 95.48,42.26 41.56,46.07 100.78,120.76 117.94,206.36 0.74,0.92 2.68,4.41 3.45,4.33 1.18,-1.05 1.08,-2.27 1.72,-4.86 -1.68,-59 -54.94,-142.74 -80.36,-174.73 -28.71,-40.84 -63.42,-88.97 -126.16,-96.48 -47.67,4.86 -92.66,42.66 -121.37,45.59 -35.57,-3.04 -42.45,-16.8 -57.16,-26.88l-7.21 -92.78 -30.28 -275.88c41.12,-10.49 90.88,18.03 105.85,75.56l2.31 26.33c2.25,25.7 -48.69,92.17 -50.61,108.14 16.2,-9.96 25.75,-20.76 36.7,-36.08 14.62,-18.41 18.03,-24.53 30.16,-42.98 14.53,-22.06 26.26,-86.23 27.76,-123.28 3.75,-92.28 -90.38,-130.24 -161.33,-123.11l-11.57 -136.93c-5.25,3.04 -9.42,5.63 -10.92,13.57l-10.04 38.49c-0.28,16.36 -17.54,95.82 -19.87,123.54 0.44,5.09 2.59,10.22 6.15,9.98l30.66 -7.09 0.86 9.87c0.99,11.35 -0.8,12.94 -0.58,23.31l-43.55 4.55 -1.9 38.6 38.93 -2.78 8.21 -0.02c10.3,-0.01 16.45,137.19 18.75,163.49 5.01,57.37 12.72,115.7 18.13,177.51 -1.03,-0.24 -143.72,-160.42 -144.97,-164.57 25.13,-11.43 54.33,-125.24 50.03,-174.49l-2.02 -23.05c-3.79,-43.36 -46.75,-74.78 -79.67,-74.9l-5.7 -59.17 -7.27 -59.04 -12.01 -18.09c-1.88,15.71 -5.26,21.92 -2.25,40.17 3.66,22.16 1.04,16.2 -3.41,31.01 -4.7,15.66 -7.49,47.31 -5.6,68.82 1.51,17.25 9.78,28.49 20.64,31.18l6.11 35.85 2.15 25.51 -25.44 6.76c-3.57,-40.83 -8.6,-75.23 -12.86,-118.39 -2.31,-23.33 -8.12,-113.15 -24.07,-116.84 -3.13,26.13 -9.65,20.97 -3.43,73.4 2.59,21.84 6.6,44.5 9.01,72.02z"/>
   <path class="fil3" d="M892.74 864.27c10.81,0.04 13.97,6 19.56,14.61l-17.83 5.15 -1.73 -19.76zm52.06 87.69l-7.77 0.79c-8.62,15.48 -15.28,34.23 -12.93,61.11l0.58 6.58c0.47,5.39 2.41,9.72 6.04,9.35 10.73,-1.09 21.14,-9.71 27.32,-16.07 5.13,3.57 11.19,8.53 12.08,18.69 0.31,3.58 -50.14,61.58 -54.65,62.04l-5.18 0.53c-8.44,0.85 -15.63,-19.31 -16.12,-28.35l2.16 -37.98 20.14 46.17c1.47,2.06 6.07,6.62 8.34,7.53 1.52,-3.65 2.71,-7.41 1.6,-12.26 -11.21,-40.65 -9.2,-39.86 -24.72,-73.89 -9.17,-20.11 -22.84,-43.08 -29.36,-66.74 9.28,-0.94 38.93,-10.73 46.44,-13.88 21.43,-9.01 16.38,-19.7 18.84,-45.93 -10.95,-20.81 -30.21,-46.74 -55.72,-44.08l0.21 36.45 2.29 26.27 -19.79 6.12 -6.85 10.06 -0.37 33.14c-0.48,28.98 28.59,58.14 30.49,79.93l-0.8 3.2 -0.34 73.31 0.57 6.58c1.06,12.11 11.33,35.38 21.28,34.36 23.31,-2.38 69.51,-66.11 80.93,-88.34l-11.7 -53.57 16.17 -16.27c2.56,3.94 14.06,15.17 16.98,14.87 26.97,-2.75 28.65,-13.75 35.94,-36.87 23.44,16.35 30.23,2.71 39.43,-20.69l-1.47 -52.94c-0.24,-13.4 -17.38,-55.48 -26.9,-74.26 -5.13,-24.6 -11.18,-73.26 -25.46,-76.5 -1.44,15.07 -2.87,17.9 -2.59,30.15 4.9,56.01 45.95,137.1 46.32,141.42 0.73,8.39 -3.86,20.32 -11.21,21.07l-2.59 0.26c-6.23,0.64 -8.08,-4.56 -13.81,-8.55 4.67,-17.53 7.06,-37.48 0.44,-46.96 -5.16,-7.4 -22.52,-0.75 -28.01,1.66 -4.27,0.99 -4.8,0.88 -6.9,2.1 -3.56,2.47 -4.64,3.36 -6.62,5.21 -3.21,1.39 -12.05,22.87 -12.74,25.57 -0.78,1.39 -2.04,19.29 2.34,20.19 2.14,-2.69 5.4,-3.83 7.88,-6.37 8.11,-1.8 12.22,-0.88 16.58,1.61 8.93,8.94 8.13,8.11 6.01,22.01 -5.19,5.36 -6.01,14.29 -14.62,15.17 -32.57,3.32 -34.27,-158.93 -68.75,-159.06 1.15,52.7 28.73,89.59 34.19,155.45l-16.92 19.5 -16.69 -18.89z"/>
   <path class="fil3" d="M1320.15 1152.8c-9.37,0.68 -29.44,-8.14 -30.2,-16.85 -0.4,-4.62 2.96,-6.94 7.19,-7.37l5.18 -0.53c8.31,-0.85 16.19,14.13 17.83,24.75zm-243.6 51.43l1.73 19.75c0.81,9.36 7.19,22.52 12.36,21.98 40.74,-4.15 50.41,-104.78 63.85,-106.16 20.49,-2.09 6.11,65.81 31.64,63.2l5.18 -0.53c15.21,-1.55 20.54,-17.44 29.05,-26.21 2.27,14.7 10.5,22.18 22.73,20.93l7.77 -0.79c14.73,-1.51 19.52,-16.08 23.58,-28.98 10.98,5.92 26.32,23.88 38.54,22.64 15.72,-1.61 22.93,-36.49 21.28,-55.32 -1.78,-20.24 -18.43,-44.61 -32.51,-43.18 -27.39,2.79 -21.7,67.57 -58.1,69.85l-12.07 -6.22c0.62,-6.67 5.92,-21.89 5.75,-23.84 -0.47,-5.39 -2.42,-9.72 -6.04,-9.35 -6.77,0.69 -20.53,45.27 -40.27,47.29 -3.55,0.36 -6.78,-6.23 -8.63,-9.08 -0.43,-20.08 -3.81,-59.4 -23.3,-57.4 -27.13,2.77 -22.93,90.05 -66.13,109.71 -2.13,-3.83 -2.9,-3.26 -3.45,-9.61 -5.03,-57.39 9.98,-89.17 8.04,-117.08 -1.21,-1.8 -3.26,-8.21 -4.66,-8.07 -1.8,1.89 -3.27,5.16 -3.11,8.86 2.06,29.46 -17.07,73.63 -13.21,117.61z"/>
   <path class="fil3" d="M1719.85 1184.89c4.18,-6.03 8.91,-2.82 12.48,2.96 2.17,6.44 5.37,12.9 6.5,19.32l-1.57 4.41c-3.74,2.66 -8.37,2.95 -12.63,-1.89l-11.05 -13.79 6.26 -11.02zm32.01 6.87c-0.83,-9.57 -19.77,-41.16 -34.8,-39.62 -26.97,2.76 -15.36,84.61 -29.05,86 -26.47,2.7 -37.75,-154.95 -67.6,-175.78l-9.55 -5.06 1.79 35.74c10.49,16.15 36.65,90.6 39.13,118.89 1.2,13.85 -35.37,74.2 -58.38,79.04l-1.44 -16.47c-1.4,-16.1 31.53,-27.71 25.88,-92.31 -0.61,-6.98 -15.49,-41.51 -19.07,-48.99 -8.4,-22.31 -10.89,-42.08 -25.72,-52.95 0.83,38.31 -3.26,26.63 10.88,68.39 3.89,11.49 19.31,45.7 20.11,54.88l-4.02 13.7 -31.91 41.13c-15.24,17.58 -24.96,24.78 -41.46,40.05 -14.95,13.84 -26.57,25.12 -43.28,38.14 -8.93,6.95 -45.53,24.05 -47.85,33.48 16.95,-10.03 61.12,-22.25 83.06,-35.27 26.93,-15.99 42.37,-30.71 63.62,-52.6l3.45 39.5c5.02,3.5 5.13,6.12 10.93,5.53 35.22,-3.6 47.48,-65.08 63.27,-82.85 4.88,17.71 13.93,31.79 31.35,30.01 10.42,-1.06 15.23,-31.62 14.09,-47.94 12.42,8.67 24.29,20.78 43.44,18.82 4.87,-0.5 6.7,-12.93 6.03,-20.55l-2.88 -32.92z"/>
   <path class="fil3" d="M1107.46 1004.86l19.82 13.76 0.8 -2.71 -18.8 57.15c13.91,-6.68 30.53,-64.93 51.73,-82.87 -1.36,-15.64 2.97,-13.46 2.62,-17.36 -0.45,-5.22 -1.6,-6.41 -5.69,-6 -9.23,0.94 -12.31,24.93 -27.69,26.5 -5.12,0.52 -11.96,-6.67 -13.44,-11.78l6.49 -8.55 18.23 -4.5c0.9,-1.4 2.62,-5.53 2.5,-6.83 -0.68,-7.82 -10.25,-10.79 -15.38,-10.26l-7.17 0.73c-21.53,2.2 -16.75,33.27 -14.01,52.72z"/>
   <path class="fil3" d="M1484.59 1022.35c0.84,9.68 -3.82,18.42 -14.03,26.03 -2.51,1.61 -8.79,5.62 -19.1,11.89l-11.56 1.17c4.89,-3.19 9.27,-6.16 13.1,-9.25 8.35,-6.07 16.15,-13.78 23.69,-23.14l-28.51 2.91c-0.52,0.05 -2.48,1.94 -5.75,5.47l-0.68 -7.85c0.42,-1.21 1.04,-3.13 1.77,-5.57 0.85,-2.28 1.62,-4.2 2.29,-5.62 0.67,-1.41 2.4,-2.94 5.45,-4.44l32.31 -3.29 1.02 11.68z"/>
   <polygon class="fil3" points="1192.42,1234.11 1180.44,1261.86 1155.79,1242.6 1167.84,1215.65 "/>
   <path class="fil3" d="M1240.22 775.77c0.99,11.31 -4.47,21.5 -16.38,30.39 -2.93,1.88 -10.26,6.55 -22.32,13.89l-13.5 1.37c5.71,-3.73 10.83,-7.2 15.3,-10.81 9.75,-7.09 18.87,-16.09 27.66,-27.02l-33.28 3.39c-0.61,0.07 -2.9,2.27 -6.72,6.39l-0.8 -9.16c0.5,-1.42 1.23,-3.66 2.07,-6.5 1,-2.66 1.9,-4.92 2.68,-6.57 0.78,-1.66 2.79,-3.43 6.35,-5.18l37.74 -3.84 1.19 13.65z"/>
   <polygon class="fil3" points="1225.9,1229.76 1213.93,1257.51 1189.28,1238.24 1201.32,1211.29 "/>
   <polygon class="fil3" points="1205.83,1010.83 1193.85,1038.59 1169.2,1019.32 1181.24,992.37 "/>
   <polygon class="fil3" points="1239.32,1006.48 1227.35,1034.23 1202.68,1014.97 1214.73,988.02 "/>
   <path class="fil4" d="M626.81 1283.67l-115.58 53.89 -12.25 -26.27 78.03 -36.38 -82.93 25.88 -8.7 -18.64 71.1 -46.62 -76.26 35.56 -12.25 -26.28 115.59 -53.89 18.14 38.92c-6.4,4.37 -14.04,9.39 -22.87,15.08l-27.48 17.86 57.17 -18.32 18.28 39.21zm28.66 51.57l-100.96 80.21 -16.98 -29.41 19.04 -12.89 -5.96 -10.31 -20.84 9.77 -17.17 -29.74 118.87 -49.17 23.99 41.54zm-79.81 25.81c11.66,-8.69 26.29,-19.06 43.82,-31.14 -22.81,9.28 -39.29,16.38 -49.49,21.3l5.67 9.83zm85.66 -14.11l14.24 20.33c9.19,13.12 14.8,22.4 16.83,27.86 2.03,5.48 2.53,10.38 1.46,14.71 -1.06,4.34 -3.1,8.01 -6.03,10.98 -2.96,2.96 -9.37,7.91 -19.29,14.85l-36.58 25.62c-9.38,6.57 -15.94,10.51 -19.75,11.83 -3.77,1.31 -7.32,1.55 -10.65,0.59 -3.33,-0.95 -6.46,-2.8 -9.44,-5.51 -2.97,-2.74 -6.71,-7.34 -11.27,-13.84l-23.99 -34.28 104.46 -73.15zm1.17 39.68l-68.72 48.12c2.73,3.89 5.2,5.78 7.4,5.59 2.22,-0.21 6.79,-2.76 13.76,-7.64l40.6 -28.43c4.74,-3.31 7.65,-5.58 8.79,-6.8 1.1,-1.23 1.62,-2.62 1.47,-4.12 -0.14,-1.52 -1.22,-3.77 -3.29,-6.72zm82.45 74.08l-88.81 93.49 -20.9 -26.77 17.06 -15.41 -7.33 -9.38 -19.28 12.57 -21.14 -27.06 110.88 -65.23 29.53 37.8zm-75.44 36.65c10.34,-10.21 23.38,-22.53 39.05,-36.93 -21.28,12.37 -36.62,21.69 -46.04,27.98l6.98 8.94zm86.28 -27.69l16.01 17.17c10.67,11.44 17.46,19.6 20.36,24.47 2.89,4.88 3.7,10.28 2.47,16.21 -1.25,5.95 -5.84,12.62 -13.81,20.05 -7.25,6.76 -12.97,10.41 -17.16,10.93 -4.16,0.54 -8.98,-1.63 -14.43,-6.47 3.28,5.91 4.72,10.65 4.24,14.17 -0.46,3.48 -1.31,6.23 -2.62,8.18 -1.29,1.98 -5.71,6.46 -13.24,13.49l-24.59 22.95 -21 -22.52 30.99 -28.91c5,-4.66 7.7,-7.95 8.16,-9.85 0.45,-1.89 -0.86,-4.52 -3.96,-7.85l-42.06 39.23 -22.64 -24.27 93.28 -86.97zm6.68 39.13l-20.75 19.36c2.53,2.71 4.69,4.26 6.46,4.68 1.78,0.4 4.73,-1.32 8.83,-5.16l5.12 -4.77c2.97,-2.77 4.4,-5.1 4.33,-7.02 -0.07,-1.92 -1.39,-4.28 -3.99,-7.08zm81.62 94.46l-24.25 -18.96 5.81 -7.44c2.71,-3.47 4.13,-5.95 4.26,-7.37 0.13,-1.43 -0.54,-2.72 -2.01,-3.85 -1.57,-1.23 -3.25,-1.53 -5.07,-0.85 -1.8,0.64 -3.72,2.27 -5.76,4.88 -2.62,3.35 -4.15,6.24 -4.58,8.65 -0.45,2.37 0.44,6.34 2.6,11.92 6.23,15.99 9.12,27.36 8.7,34.17 -0.43,6.79 -4.51,15.11 -12.2,24.96 -5.6,7.15 -10.57,11.77 -14.89,13.86 -4.32,2.08 -9.8,2.41 -16.38,0.95 -6.6,-1.46 -13.08,-4.66 -19.47,-9.64 -6.98,-5.46 -11.92,-11.47 -14.79,-17.97 -2.89,-6.52 -3.49,-12.42 -1.83,-17.71 1.69,-5.3 5.46,-11.7 11.35,-19.25l5.14 -6.56 24.26 18.95 -9.55 12.22c-2.95,3.77 -4.5,6.45 -4.67,8.07 -0.13,1.61 0.65,3.1 2.39,4.46 1.74,1.35 3.56,1.69 5.48,0.97 1.92,-0.69 3.92,-2.4 6.03,-5.09 4.62,-5.91 6.84,-10.42 6.65,-13.5 -0.23,-3.12 -1.95,-9.34 -5.11,-18.66 -3.13,-9.41 -5,-15.88 -5.59,-19.49 -0.57,-3.59 -0.23,-7.66 1.07,-12.16 1.28,-4.53 4.03,-9.44 8.2,-14.78 6.01,-7.7 11.39,-12.57 16.14,-14.59 4.73,-2.04 10.07,-2.33 16.03,-0.91 5.94,1.43 12.03,4.56 18.24,9.4 6.8,5.32 11.73,10.94 14.79,16.85 3.07,5.94 4.07,11.17 3.02,15.73 -1.05,4.54 -4.71,10.8 -10.95,18.78l-3.1 3.96zm77 7.14l-59.6 114.34 -27.47 -19.96 12.15 -19.52 -9.63 -7 -15.07 17.4 -27.78 -20.18 88.61 -93.28 38.8 28.2zm-62.41 56.03c7.12,-12.67 16.27,-28.1 27.36,-46.26 -17.05,17.75 -29.23,30.94 -36.54,39.59l9.18 6.66zm121.75 -24.66l-57.9 113.63 -29.57 -15.06 57.91 -113.63 29.56 15.06zm54.71 66.56l-28.13 -12.52 3.83 -8.63c1.8,-4.02 2.58,-6.77 2.36,-8.19 -0.22,-1.42 -1.18,-2.5 -2.88,-3.26 -1.82,-0.8 -3.52,-0.68 -5.12,0.4 -1.6,1.06 -3.07,3.11 -4.41,6.13 -1.73,3.88 -2.52,7.06 -2.34,9.49 0.13,2.42 1.96,6.05 5.4,10.95 9.92,14.01 15.47,24.34 16.71,31.04 1.22,6.7 -0.72,15.75 -5.8,27.18 -3.7,8.3 -7.41,13.98 -11.1,17.05 -3.69,3.06 -8.93,4.71 -15.66,4.89 -6.75,0.17 -13.82,-1.35 -21.21,-4.65 -8.11,-3.61 -14.34,-8.24 -18.69,-13.86 -4.38,-5.63 -6.4,-11.21 -6.06,-16.74 0.35,-5.56 2.47,-12.68 6.36,-21.42l3.38 -7.62 28.14 12.52 -6.31 14.17c-1.95,4.37 -2.8,7.35 -2.58,8.95 0.27,1.6 1.38,2.86 3.4,3.75 2.01,0.89 3.85,0.78 5.55,-0.38 1.69,-1.13 3.23,-3.27 4.62,-6.39 3.05,-6.85 4.11,-11.77 3.19,-14.71 -0.97,-2.97 -4.15,-8.59 -9.47,-16.88 -5.31,-8.37 -8.69,-14.2 -10.13,-17.55 -1.42,-3.34 -2.08,-7.37 -1.91,-12.06 0.15,-4.71 1.64,-10.13 4.38,-16.33 3.97,-8.92 8.02,-14.95 12.13,-18.06 4.1,-3.12 9.22,-4.7 15.34,-4.77 6.11,-0.04 12.78,1.52 19.98,4.72 7.89,3.51 14.02,7.78 18.42,12.76 4.41,5.03 6.65,9.85 6.74,14.54 0.08,4.66 -1.96,11.61 -6.08,20.87l-2.05 4.6zm46.22 -25.13l-31.53 97.02 19.18 6.23 -7.89 24.27 -50.74 -16.49 39.41 -121.29 31.56 10.25zm79.6 21.7l-14.67 128.09 -32.8 -8.79 4.35 -22.58 -11.51 -3.08 -7.84 21.64 -33.16 -8.88 49.3 -118.83 46.33 12.42zm-38.18 74.67c2.1,-14.39 5.11,-32.07 8.96,-53 -9.55,22.69 -16.19,39.36 -19.93,50.06l10.97 2.94zm143.44 -62.99l-11.12 127.05 -28.87 -2.53 7.5 -85.77 -19.04 84.77 -20.49 -1.8 -4.84 -84.88 -7.32 83.81 -28.88 -2.53 11.12 -127.05 42.77 3.74c0.59,7.75 1.11,16.87 1.63,27.35l1.73 32.73 12.72 -58.68 43.1 3.77zm40.22 1.16l-4.45 127.46 -33.16 -1.15 4.45 -127.46 33.16 1.15zm54.8 -4.94l30.03 125.4 -33.83 2.96 -3.63 -22.71 -11.86 1.03 0.04 23.02 -34.21 3 5.68 -128.53 47.78 -4.18zm-10.34 83.23c-2.95,-14.24 -6.17,-31.88 -9.7,-52.86 -1.22,24.58 -1.76,42.52 -1.61,53.85l11.31 -0.99zm46.53 -86.41l54.1 -11.5 5.31 24.95 -21.64 4.61 5.03 23.65 20.25 -4.3 5.05 23.74 -20.25 4.3 5.83 27.43 23.8 -5.06 5.31 24.96 -56.26 11.96 -26.52 -124.75zm126.49 -32.07l39.41 121.29 -31.54 10.24 -16.55 -50.94 -9.44 3.07 16.56 50.94 -31.56 10.24 -39.41 -121.29 31.56 -10.25 14.1 43.38 9.43 -3.07 -14.09 -43.37 31.53 -10.24zm71.76 -27.28l6.59 84.62 16.55 43.11 -28.7 11.02 -16.54 -43.11 -50.93 -67.61 28.48 -10.93c13.35,21.49 21.84,36.14 25.46,43.97 -3.14,-13.37 -6.27,-30.07 -9.37,-50.14l28.47 -10.93zm44.11 -24.92l74.81 105.02 -30.25 15.42 -11.88 -19.7 -10.62 5.41 8.67 21.33 -30.59 15.58 -42.88 -121.29 42.73 -21.77zm21.59 81.04c-8.07,-12.1 -17.66,-27.25 -28.8,-45.38 8.08,23.26 14.3,40.1 18.68,50.53l10.11 -5.15zm68.24 -141.42l50.1 68.96c5.68,7.81 9.41,13.51 11.21,17.02 1.79,3.56 2.64,7.89 2.56,13.03 -0.09,5.19 -1.55,10.09 -4.4,14.8 -2.84,4.69 -7.06,9.08 -12.61,13.11 -6.18,4.49 -12.36,7.42 -18.54,8.79 -6.2,1.38 -11.66,1.28 -16.38,-0.27 -4.72,-1.6 -8.61,-4.01 -11.66,-7.34 -3.07,-3.32 -8.82,-10.82 -17.29,-22.48l-44.35 -61.04 26.82 -19.49 56.21 77.35c3.27,4.51 5.61,7.22 7,8.1 1.4,0.91 2.84,0.83 4.34,-0.25 1.7,-1.23 2.28,-2.72 1.78,-4.46 -0.53,-1.75 -2.66,-5.18 -6.39,-10.31l-55.24 -76.03 26.84 -19.51zm24.94 -20.04l68.26 75.82 14.98 -13.5 17.08 18.96 -39.64 35.7 -85.34 -94.78 24.66 -22.21zm87.26 -83.63l62.34 58.14c7.05,6.58 11.81,11.46 14.24,14.57 2.44,3.15 4.1,7.24 5,12.31 0.9,5.1 0.41,10.19 -1.5,15.36 -1.9,5.15 -5.2,10.26 -9.87,15.28 -5.21,5.59 -10.72,9.64 -16.53,12.16 -5.83,2.55 -11.2,3.49 -16.12,2.87 -4.94,-0.67 -9.22,-2.31 -12.85,-5 -3.64,-2.67 -10.72,-8.93 -21.25,-18.75l-55.19 -51.46 22.62 -24.24 69.93 65.21c4.07,3.79 6.88,6.02 8.43,6.61 1.55,0.63 2.94,0.27 4.2,-1.08 1.43,-1.54 1.73,-3.1 0.9,-4.71 -0.85,-1.62 -3.6,-4.58 -8.25,-8.9l-68.72 -64.1 22.63 -24.27zm22.13 -27.45l80.39 62.81 12.42 -15.89 20.11 15.71 -32.85 42.04 -100.49 -78.53 20.42 -26.15zm116.28 -33.1c10.51,7.35 17.76,12.79 21.78,16.34 4.02,3.57 6.93,7.91 8.73,13.03 1.79,5.13 2.1,10.6 0.93,16.39 -1.16,5.78 -3.81,11.64 -7.94,17.52 -3.91,5.59 -8.36,9.96 -13.31,13.13 -4.96,3.19 -10.18,4.85 -15.73,5 -5.56,0.15 -10.68,-1.03 -15.33,-3.51 -4.68,-2.52 -12.39,-7.53 -23.14,-15.05l-17.87 -12.51c-10.51,-7.35 -17.76,-12.79 -21.78,-16.37 -4.02,-3.54 -6.93,-7.88 -8.71,-13.02 -1.79,-5.13 -2.12,-10.58 -0.93,-16.39 1.15,-5.78 3.79,-11.61 7.94,-17.52 3.91,-5.59 8.36,-9.96 13.3,-13.13 4.95,-3.17 10.19,-4.85 15.74,-5 5.56,-0.15 10.67,1.03 15.31,3.53 4.7,2.5 12.37,7.52 23.15,15.05l17.86 12.51zm-53.33 3.13c-4.88,-3.41 -8.17,-5.32 -9.91,-5.73 -1.72,-0.41 -3.17,0.21 -4.34,1.89 -1,1.43 -1.2,2.9 -0.63,4.42 0.54,1.53 3.52,4.16 8.92,7.94l48.77 34.15c6.08,4.26 10,6.62 11.76,7.12 1.77,0.51 3.29,-0.16 4.56,-1.97 1.29,-1.85 1.29,-3.58 0.04,-5.26 -1.3,-1.67 -5,-4.64 -11.16,-8.96l-47.99 -33.6zm95.82 -75.71c11.11,6.41 18.8,11.21 23.12,14.38 4.32,3.21 7.61,7.27 9.83,12.22 2.24,4.96 3.02,10.38 2.37,16.25 -0.66,5.86 -2.79,11.92 -6.38,18.14 -3.41,5.91 -7.46,10.66 -12.11,14.25 -4.66,3.61 -9.72,5.72 -15.24,6.35 -5.52,0.63 -10.72,-0.1 -15.58,-2.17 -4.87,-2.1 -12.99,-6.42 -24.36,-12.98l-18.88 -10.9c-11.11,-6.41 -18.8,-11.2 -23.13,-14.41 -4.31,-3.18 -7.6,-7.24 -9.81,-12.22 -2.23,-4.95 -3.03,-10.35 -2.36,-16.23 0.65,-5.86 2.77,-11.9 6.37,-18.14 3.42,-5.92 7.47,-10.67 12.11,-14.25 4.65,-3.59 9.72,-5.72 15.25,-6.35 5.52,-0.63 10.71,0.1 15.56,2.19 4.89,2.08 12.97,6.4 24.36,12.98l18.88 10.9zm-52.86 7.77c-5.15,-2.97 -8.59,-4.59 -10.37,-4.84 -1.75,-0.26 -3.14,0.48 -4.16,2.26 -0.87,1.52 -0.95,2.99 -0.24,4.46 0.67,1.47 3.86,3.84 9.57,7.13l51.55 29.77c6.42,3.71 10.55,5.72 12.33,6.06 1.81,0.36 3.27,-0.44 4.36,-2.35 1.13,-1.96 0.98,-3.69 -0.42,-5.24 -1.43,-1.55 -5.37,-4.19 -11.89,-7.96l-50.74 -29.3zm32.49 -140.06l115.58 53.89 -12.24 26.28 -78.03 -36.39 73.13 46.89 -8.69 18.64 -81.42 -24.49 76.26 35.56 -12.25 26.27 -115.59 -53.89 18.15 -38.92c7.49,2.1 16.22,4.72 26.26,7.83l31.35 9.57 -50.78 -32.02 18.28 -39.21z"/>
   <path class="fil5" d="M915.72 2135.58c-0.83,-6.92 -1.68,-13.15 -2.52,-18.65 -0.84,-5.52 -1.95,-11.89 -3.3,-19.09 -1.34,-7.21 -2.88,-14.79 -4.59,-22.76 -1.71,-7.98 -3.11,-14.29 -4.21,-18.96 4.83,-1.01 8.7,-1.86 11.65,-2.55 3.06,-0.72 6.78,-1.71 11.15,-2.89 4.37,-1.21 8.63,-2.32 12.81,-3.3 4.91,-1.15 9.31,-1.99 13.25,-2.5 2.92,-0.42 5.67,-0.46 8.23,-0.17 2.55,0.29 4.78,0.84 6.66,1.67 1.9,0.83 3.57,1.88 4.98,3.11 1.43,1.24 2.67,2.8 3.75,4.68 1.06,1.87 1.87,3.95 2.4,6.25 0.61,2.57 0.84,5.07 0.72,7.46 -0.12,2.39 -0.64,4.75 -1.6,7.04 -0.93,2.31 -2.3,4.44 -4.07,6.37 -1.81,1.93 -4.45,4.1 -7.93,6.49l4.71 6.62c1.32,1.83 2.72,3.69 4.17,5.59l11.67 15.07c0.52,0.64 1.46,1.94 2.86,3.89 -6.36,1.4 -10.64,2.37 -12.81,2.88 -2.77,0.65 -7.27,1.76 -13.56,3.31 -1.07,-1.86 -3.07,-5.31 -5.95,-10.35 -1.18,-2.11 -2.15,-3.74 -2.9,-4.85 -1.55,-2.52 -3.82,-6.02 -6.76,-10.54l-9.76 -14.92c2.17,-0.09 4.23,-0.37 6.24,-0.84 2.79,-0.65 5.22,-1.67 7.3,-3.04 2.08,-1.38 3.49,-3.08 4.26,-5.13 0.74,-2.02 0.9,-4 0.43,-5.96 -0.38,-1.64 -1.15,-2.99 -2.33,-4.01 -1.17,-1.03 -2.78,-1.63 -4.81,-1.79 -2.05,-0.16 -5.05,0.21 -9,1.13 -1.33,0.31 -2.72,0.66 -4.14,1.06 -1.41,0.39 -3.07,0.84 -4.99,1.33 1.33,7.97 3.16,17.67 5.43,29.07 2.27,11.41 4.63,22.58 7.06,33.5 -6.42,1.42 -10.59,2.36 -12.51,2.81 -2.22,0.52 -6.23,1.52 -12.01,2.95zm136.39 -47.03c-0.07,2.41 0.01,8.18 0.24,17.31 -4.33,1.74 -8.01,3.03 -11.03,3.9 -3.02,0.86 -6.08,1.6 -9.23,2.18 -4.63,0.85 -8.95,1.32 -12.93,1.4 -4,0.08 -7.57,-0.45 -10.69,-1.56 -3.11,-1.08 -5.84,-2.67 -8.2,-4.74 -2.35,-2.07 -4.32,-4.68 -5.93,-7.83 -1.62,-3.15 -2.74,-6.49 -3.39,-9.99 -0.91,-4.97 -0.82,-10 0.29,-15.11 1.08,-5.11 2.96,-9.28 5.58,-12.51 2.64,-3.26 5.88,-5.83 9.73,-7.69 3.86,-1.89 7.94,-3.21 12.2,-4 4.4,-0.81 8.73,-1.07 12.92,-0.78 4.21,0.26 7.94,1.44 11.2,3.46 3.27,2.05 5.79,4.56 7.57,7.55 1.77,3 3,6.36 3.69,10.06 0.41,2.23 0.62,4.71 0.64,7.52l-40.86 7.61c0.07,0.62 0.16,1.18 0.25,1.7 0.77,4.16 2.85,6.96 6.21,8.39 3.35,1.41 7.18,1.74 11.51,0.93 2.56,-0.47 5.44,-1.31 8.62,-2.52 3.16,-1.19 7.04,-2.96 11.6,-5.28zm-39.37 -12.17l19.24 -3.55c-0.08,-0.66 -0.16,-1.22 -0.25,-1.7 -0.37,-2.01 -1.04,-3.66 -2.02,-4.96 -1,-1.29 -2.23,-2.14 -3.67,-2.54 -1.47,-0.41 -3.04,-0.47 -4.71,-0.16 -1.16,0.22 -2.25,0.6 -3.27,1.18 -1.02,0.55 -1.91,1.29 -2.65,2.17 -0.74,0.87 -1.32,1.83 -1.73,2.86 -0.41,1.02 -0.67,2.02 -0.8,2.92 -0.09,0.91 -0.14,2.18 -0.14,3.77zm121.59 19.73c-4.19,0.41 -7.69,0.77 -10.48,1.09 -3.14,0.37 -6.94,0.85 -11.4,1.44l-0.52 -7.45c-1.35,1.66 -2.55,3.01 -3.57,4.06 -1.03,1.05 -2.39,2.11 -4.07,3.17 -1.69,1.07 -3.51,1.96 -5.52,2.68 -1.99,0.69 -4.08,1.18 -6.29,1.43 -3.74,0.44 -7.34,0.16 -10.78,-0.84 -3.42,-0.98 -6.43,-2.6 -9.03,-4.86 -2.59,-2.26 -4.67,-5.06 -6.2,-8.37 -1.55,-3.34 -2.53,-6.88 -2.96,-10.59 -0.61,-5.29 -0.17,-10.58 1.32,-15.86 1.47,-5.29 3.74,-9.57 6.75,-12.84 3.03,-3.3 6.58,-5.78 10.65,-7.48 4.07,-1.67 8.57,-2.8 13.48,-3.37 3.24,-0.37 7.08,-0.53 11.5,-0.48 -0.24,-4.7 -0.82,-11.25 -1.7,-19.66 4.82,-0.47 8.75,-0.89 11.79,-1.24 3.95,-0.46 7.91,-0.96 11.93,-1.51 0.24,11.74 0.91,26.06 2.02,42.93 1.1,16.85 2.12,29.44 3.08,37.73zm-26.16 -42.89c-2.14,-0.24 -4.12,-0.25 -5.97,-0.04 -3.82,0.45 -6.98,1.57 -9.48,3.34 -2.49,1.77 -4.28,4.28 -5.37,7.59 -1.06,3.27 -1.42,6.41 -1.08,9.42 0.27,2.28 0.9,4.27 1.92,5.99 1.03,1.73 2.43,3.03 4.23,3.89 1.79,0.87 3.7,1.17 5.75,0.93 2.16,-0.25 4.05,-1.07 5.72,-2.51 1.65,-1.4 2.88,-3.36 3.72,-5.83 0.85,-2.48 1.3,-5.37 1.33,-8.65 0.05,-3.27 -0.22,-7.99 -0.77,-14.14zm44.58 48.24c5.2,1.38 9.75,2.28 13.65,2.69 3.91,0.42 7.29,0.51 10.17,0.3 2.07,-0.15 3.94,-0.51 5.6,-1.09 1.66,-0.56 2.98,-1.22 3.94,-1.97 0.97,-0.75 1.8,-1.67 2.45,-2.73 0.65,-1.07 1.12,-2.26 1.41,-3.56 0.31,-1.27 0.49,-2.76 0.51,-4.42 0.04,-1.66 0.01,-3.94 -0.08,-6.86 -1.43,1.47 -2.68,2.68 -3.74,3.59 -1.06,0.9 -2.4,1.79 -3.99,2.67 -1.59,0.91 -3.33,1.63 -5.26,2.17 -1.92,0.56 -3.95,0.91 -6.13,1.07 -4.99,0.36 -9.57,-0.47 -13.75,-2.49 -4.19,-2.03 -7.43,-5.05 -9.68,-9.04 -2.27,-4.02 -3.58,-8.46 -3.94,-13.29 -0.41,-5.67 0.28,-10.9 2.06,-15.64 1.8,-4.74 4.55,-8.86 8.26,-12.32 3.71,-3.47 7.9,-5.98 12.51,-7.53 4.62,-1.58 9.92,-2.57 15.89,-3 3.42,-0.25 7.32,-0.34 11.69,-0.25 4.38,0.1 10.4,0.53 18.08,1.34l0.05 19.56 0.35 21.44c0.05,1.54 0.1,2.79 0.18,3.77l0.93 19.2c0.1,2.45 -0.04,4.78 -0.38,7.03 -0.29,2.02 -0.88,3.94 -1.78,5.75 -0.88,1.8 -2.04,3.4 -3.43,4.82 -1.57,1.54 -3.34,2.77 -5.31,3.76 -2.03,1 -4.44,1.91 -7.22,2.66 -3.04,0.76 -6.24,1.28 -9.57,1.53 -1.9,0.13 -4.21,0.22 -6.98,0.24 -2.77,0.02 -5.62,-0.03 -8.52,-0.16 -2.93,-0.15 -5.47,-0.33 -7.59,-0.58 -2.15,-0.23 -4.84,-0.59 -8.13,-1.1l-0.98 -7.8c-0.15,-1.51 -0.56,-4.75 -1.27,-9.75zm36.79 -53.78c-2.47,-0.28 -4.68,-0.37 -6.6,-0.23 -3.54,0.26 -6.55,1.17 -9.03,2.71 -2.47,1.54 -4.33,3.69 -5.55,6.47 -1.23,2.8 -1.74,5.62 -1.53,8.52 0.16,2.11 0.68,4.05 1.56,5.79 0.88,1.76 2.23,3.07 4.03,3.99 1.81,0.9 3.67,1.28 5.61,1.14 2.83,-0.2 5.28,-1.41 7.33,-3.6 2.05,-2.2 3.37,-5.09 3.94,-8.66 0.56,-3.58 0.63,-8.97 0.23,-16.13zm99 40.09c0.33,-3.51 0.61,-7.24 0.85,-11.18 0.24,-3.93 0.41,-7.08 0.51,-9.4l-6.45 0.13 -4.84 0.05 -22.23 0.53 0.14 -1.84c0.04,-0.43 0.09,-1.7 0.15,-3.84l0.32 -11.19c0.03,-1.03 0.04,-2.13 0.03,-3.25 3.96,-4.9 8.54,-10.98 13.73,-18.27 5.19,-7.29 10.11,-14.77 14.81,-22.42 6.07,0.01 11.52,0 16.38,-0.05 4.59,-0.05 9.26,-0.14 14.08,-0.27 -0.58,8.38 -1.03,16.58 -1.31,24.58 -0.3,7.99 -0.44,14.04 -0.44,18.15 1.9,0.06 4.11,0.08 6.67,0.05 2.02,-0.02 3.19,-0.05 3.49,-0.07 0.32,-0.03 1.08,-0.09 2.32,-0.23 -0.11,4.73 -0.14,9.68 -0.09,14.91l0.03 2.76c-2.36,-0.1 -5.83,-0.12 -10.41,-0.07l-2.42 0.08c-0.29,3.83 -0.38,10.7 -0.27,20.58 -3.91,-0.04 -7.97,-0.04 -12.14,0 -3.91,0.04 -8.21,0.13 -12.91,0.25zm4.57 -37.2l0.97 -26.75c-2.58,4.1 -4.71,7.35 -6.35,9.79 -1.66,2.43 -2.85,4.15 -3.58,5.2l-8.55 11.94 17.51 -0.18zm42.42 37.34c0.2,-1.86 0.4,-4.28 0.59,-7.34 0.2,-3.04 0.41,-6.16 0.65,-9.34 4.2,-3.22 8.05,-6.35 11.58,-9.39 5.7,-4.93 10.75,-9.57 15.18,-13.93 3.53,-3.46 6.5,-6.66 8.91,-9.57 1.38,-1.74 2.32,-3.18 2.8,-4.33 0.32,-0.81 0.51,-1.66 0.54,-2.52 0.03,-1.15 -0.2,-2.15 -0.67,-3.01 -0.48,-0.86 -1.26,-1.6 -2.36,-2.22 -1.08,-0.63 -2.4,-1.14 -3.96,-1.56 -1.57,-0.39 -3.35,-0.62 -5.35,-0.69 -2.76,-0.08 -5.67,0.07 -8.73,0.44 -3.06,0.37 -7.25,1.12 -12.56,2.29l1.78 -8.44c0.4,-1.68 1,-4.93 1.82,-9.72 10.42,-1.37 20.14,-1.92 29.19,-1.64 4.13,0.13 8.07,0.63 11.84,1.5 3.74,0.86 7.09,2.24 10.04,4.1 2.92,1.89 5.1,4.05 6.53,6.48 1.41,2.42 2.09,5.01 2,7.77 -0.05,1.8 -0.33,3.58 -0.81,5.34 -0.47,1.69 -1.34,3.63 -2.6,5.9 -1.59,2.77 -3.5,5.52 -5.79,8.19 -3.39,4.03 -7.27,8.19 -11.68,12.45 -4.22,4.04 -9.27,8.57 -15.15,13.59l6.46 0.26c1.54,0.05 4.58,0.11 9.12,0.17 4.54,0.06 7.69,0.07 9.46,0.05 1.76,-0.03 3.93,-0.14 6.54,-0.34 -0.18,1.89 -0.43,4.26 -0.76,7.09 -0.35,2.84 -0.72,6.3 -1.11,10.41 -9.79,-0.39 -20.03,-0.75 -30.73,-1.08 -12.9,-0.4 -23.82,-0.7 -32.76,-0.89zm124.34 -44.6c2.06,-0.13 4.02,-0.1 5.85,0.07 4.5,0.42 8.45,1.69 11.85,3.79 3.41,2.11 5.86,5.09 7.35,8.98 1.49,3.88 2.02,8.11 1.59,12.66 -0.28,3.01 -0.98,5.9 -2.09,8.64 -1.11,2.71 -2.56,5.19 -4.35,7.43 -1.79,2.22 -3.93,4.16 -6.44,5.81 -2.52,1.65 -5.15,2.82 -7.87,3.55 -2.74,0.74 -5.63,1.21 -8.66,1.41 -3.02,0.22 -6.06,0.18 -9.13,-0.11 -7.08,-0.67 -13.13,-2.44 -18.15,-5.3 -5,-2.88 -8.51,-6.49 -10.49,-10.86 -1.98,-4.37 -2.73,-9.05 -2.26,-14.03 0.27,-2.87 0.88,-5.99 1.86,-9.34 0.96,-3.35 2.79,-7.29 5.45,-11.8 2.65,-4.54 6.19,-9.69 10.64,-15.49 4.46,-5.8 8.9,-11.07 13.38,-15.79l30.12 2.84c-6.59,6.29 -10.99,10.58 -13.16,12.82 -3.12,3.21 -6.07,6.55 -8.85,10.04 -2.8,3.46 -5.17,6.7 -7.07,9.72 -1.93,3.02 -3.6,6 -5.02,8.94 -0.85,1.75 -1.47,3.39 -1.92,4.93 -0.45,1.54 -0.73,2.99 -0.86,4.35 -0.17,1.85 0.04,3.65 0.62,5.41 0.59,1.76 1.57,3.18 2.98,4.31 1.39,1.12 3.11,1.77 5.2,1.97 1.98,0.18 3.74,-0.11 5.34,-0.89 1.59,-0.76 2.83,-1.95 3.73,-3.48 0.89,-1.56 1.43,-3.22 1.61,-5.04 0.3,-3.15 -0.63,-5.57 -2.8,-7.22 -2.16,-1.67 -4.37,-2.6 -6.66,-2.82 -0.7,-0.07 -1.78,-0.09 -3.2,-0.06 1.04,-1.35 3.02,-4 5.88,-7.91l5.55 -7.55zm8.61 79.58l15.2 -20.54 42.23 -57.92 15.07 -20.96c3.19,0.52 5.44,0.87 6.75,1.05 1.65,0.22 3.9,0.5 6.79,0.81l-61.36 85.21c-2.27,3.14 -5.6,7.94 -10.01,14.37 -3.4,-0.55 -5.69,-0.9 -6.85,-1.06 -0.78,-0.11 -3.38,-0.43 -7.83,-0.96zm128.77 -91.74c6.22,1.15 11.63,3.42 16.19,6.79 4.55,3.36 7.69,8.25 9.41,14.68 1.7,6.42 1.83,13.65 0.34,21.65 -1.16,6.29 -3.16,12.34 -6.03,18.18 -2.86,5.85 -6.11,10.36 -9.76,13.56 -3.66,3.18 -8.09,5.36 -13.31,6.53 -5.22,1.14 -10.59,1.21 -16.07,0.2 -4.69,-0.86 -8.92,-2.43 -12.75,-4.7 -3.82,-2.26 -6.95,-5.41 -9.44,-9.37 -2.47,-3.98 -3.87,-8.43 -4.24,-13.32 -0.38,-4.91 -0.08,-10 0.9,-15.31 1.18,-6.43 3.21,-12.6 6.08,-18.46 2.87,-5.89 6.22,-10.51 10.04,-13.84 3.81,-3.33 8.23,-5.51 13.26,-6.53 5.03,-1.01 10.15,-1.03 15.37,-0.07zm-3.56 17.06c-1.83,-0.33 -3.55,-0.1 -5.19,0.73 -1.99,0.98 -3.7,2.53 -5.12,4.65 -1.76,2.51 -3.28,5.51 -4.55,8.94 -1.42,3.8 -2.58,8.04 -3.44,12.72 -0.75,4.1 -0.99,7.59 -0.71,10.43 0.27,2.82 1.06,5.12 2.35,6.89 1.3,1.76 3.01,2.83 5.09,3.22 1.17,0.21 2.35,0.17 3.55,-0.12 1.18,-0.32 2.54,-1.09 4.03,-2.4 1.51,-1.27 2.98,-3.24 4.44,-5.91 1.45,-2.64 2.67,-5.47 3.68,-8.48 0.98,-3 1.78,-6.09 2.37,-9.27 1.21,-6.58 1.21,-11.67 -0.02,-15.22 -1.23,-3.54 -3.39,-5.61 -6.48,-6.18zm42.21 74.66c4.33,-3.27 8.42,-6.46 12.27,-9.55 3.85,-3.09 7.79,-6.43 11.8,-10 4.01,-3.59 7.11,-6.57 9.33,-8.97 2.22,-2.38 4.11,-4.7 5.67,-6.91 1.54,-2.23 2.67,-4.05 3.35,-5.52 0.69,-1.44 1.2,-2.92 1.56,-4.41 0.48,-2.05 0.55,-3.93 0.21,-5.69 -0.33,-1.76 -1.14,-3.21 -2.41,-4.35 -1.26,-1.15 -2.78,-1.92 -4.55,-2.34 -2.99,-0.7 -5.77,-0.34 -8.3,1.09 -2.56,1.43 -4.19,3.74 -4.94,6.9 -0.43,1.83 -0.39,3.49 0.11,5 0.49,1.51 1.45,2.79 2.86,3.86 1.4,1.07 2.91,1.81 4.55,2.19 0.98,0.23 2.44,0.36 4.33,0.4 -4.91,4.31 -9.93,8.93 -15.06,13.86 -1.33,-0.15 -2.48,-0.33 -3.4,-0.55 -2.53,-0.59 -5.19,-1.72 -7.93,-3.37 -2.76,-1.67 -5.05,-3.73 -6.87,-6.19 -1.84,-2.49 -2.98,-5.39 -3.46,-8.71 -0.48,-3.33 -0.32,-6.66 0.48,-10.04 1.06,-4.54 3.06,-8.54 5.98,-12.06 2.94,-3.51 6.49,-6.11 10.69,-7.83 4.19,-1.71 8.52,-2.59 13,-2.64 4.5,-0.06 9.19,0.48 14.1,1.64 4.54,1.07 8.76,2.68 12.65,4.87 3.9,2.16 6.89,4.79 8.99,7.87 2.09,3.08 3.38,6.49 3.87,10.23 0.51,3.72 0.38,7.19 -0.37,10.38 -0.53,2.26 -1.4,4.73 -2.59,7.39 -1.18,2.69 -2.74,5.43 -4.63,8.26 -1.92,2.85 -4.35,6 -7.37,9.47 -2.99,3.48 -6.38,6.97 -10.18,10.5 -3.79,3.52 -8.4,7.62 -13.83,12.28l-29.92 -7.02z"/>
  </g>
 </g>
</svg>
